<?xml version="1.0" encoding="utf-8"?>
<!-- Generator: Adobe Illustrator 16.0.0, SVG Export Plug-In . SVG Version: 6.00 Build 0)  -->
<!DOCTYPE svg PUBLIC "-//W3C//DTD SVG 1.1//EN" "http://www.w3.org/Graphics/SVG/1.1/DTD/svg11.dtd">
<svg version="1.1" xmlns="http://www.w3.org/2000/svg" xmlns:xlink="http://www.w3.org/1999/xlink" x="0px" y="0px" width="772px"
	 height="770px" viewBox="-123.5 -126.5 772 770" enable-background="new -123.5 -126.5 772 770" xml:space="preserve">
<g id="Layer_2">
	<g>
		<path fill="#543091" d="M261.62-104.378c48.944,0,96.416,9.583,141.097,28.48C445.881-57.64,484.65-31.5,517.947,1.797
			c33.297,33.296,59.437,72.065,77.693,115.229c18.898,44.681,28.48,92.152,28.48,141.097s-9.582,96.416-28.48,141.096
			c-18.257,43.164-44.396,81.934-77.693,115.229c-33.297,33.297-72.065,59.437-115.229,77.693
			c-44.681,18.898-92.152,28.48-141.097,28.48s-96.416-9.582-141.096-28.48c-43.165-18.257-81.934-44.396-115.23-77.693
			c-33.296-33.296-59.437-72.065-77.693-115.229c-18.898-44.68-28.48-92.151-28.48-141.096s9.582-96.416,28.48-141.097
			C-54.142,73.862-28.002,35.093,5.294,1.797C38.591-31.5,77.36-57.64,120.524-75.897
			C165.204-94.795,212.676-104.378,261.62-104.378 M261.62-120.378c-209.04,0-378.5,169.461-378.5,378.5
			c0,209.039,169.46,378.499,378.5,378.499c209.04,0,378.5-169.46,378.5-378.499C640.12,49.083,470.66-120.378,261.62-120.378
			L261.62-120.378z"/>
	</g>
</g>
<g id="Capa_1" display="none">
	<g display="inline">
		<g id="Layer_5_2_">
			<g>
				<path fill="#532F91" d="M439.72,399.918c0,0-46.696-77.354-55.071-91.228c9.53-2.803,19.681-5.277,23.899-12.297
					c7.029-11.698-5.483-30.888-2.197-43.425c3.384-12.903,23.364-24.069,23.364-37.185c0-12.779-20.657-27.708-24.044-40.536
					c-3.308-12.536,9.168-31.745,2.115-43.428c-7.053-11.685-30.543-10.725-40.213-19.692c-9.949-9.23-9.919-31.811-21.919-37.996
					c-12.049-6.208-31.632,6.338-45.012,3.367c-13.225-2.938-25.041-22.132-38.855-22.132c-14.02,0-36.319,21.772-39.816,22.556
					c-13.371,2.997-32.979-9.52-45.016-3.286c-11.99,6.207-11.916,28.79-21.847,38.035c-9.653,8.984-33.145,8.066-40.176,19.763
					c-7.029,11.696,5.484,30.88,2.199,43.424c-3.293,12.576-23.97,25.319-23.97,39.863c0,13.117,20.031,24.248,23.436,37.145
					c3.31,12.534-9.166,31.742-2.113,43.431c3.839,6.361,12.55,8.973,21.25,11.483c1.016,0.292,2.936,1.387,1.635,3.214
					c-5.952,9.901-53.857,89.593-53.857,89.593c-3.811,6.338-0.716,11.771,6.875,12.079l37.159,1.494
					c7.591,0.308,17.114,5.624,21.166,11.819l19.829,30.328c4.052,6.194,10.481,6.078,14.291-0.26c0,0,55.479-92.321,55.502-92.348
					c1.114-1.255,2.232-0.997,2.768-0.558c6.07,4.98,14.532,9.951,21.594,9.951c6.928,0,13.34-4.679,19.684-9.896
					c0.518-0.423,1.773-1.292,2.693,0.511c0.014,0.028,55.432,91.846,55.432,91.846c3.82,6.33,10.251,6.437,14.291,0.234
					l19.772-30.362c4.04-6.2,13.553-11.538,21.144-11.856l37.156-1.562C440.455,411.686,443.54,406.246,439.72,399.918z
					 M323.197,316.872c-41.085,23.039-90.4,20.569-128.067-2.331c-55.192-34.076-73.352-104.566-40.173-159.764
					c33.559-55.834,107.327-75.535,165.775-44.852c0.308,0.161,0.611,0.328,0.915,0.492c0.434,0.231,0.866,0.466,1.297,0.703
					c18.031,10.021,33.668,24.563,44.864,43.113C402.028,210.928,382.017,283.887,323.197,316.872z"/>
				<path fill="#532F91" d="M313.801,127.805c-0.17-0.096-0.344-0.184-0.514-0.278c-31.223-17.417-71.019-18.691-104.371,0.012
					c-49.493,27.754-66.335,89.143-37.541,136.847c8.787,14.558,20.827,26.178,34.718,34.518c1.182,0.722,2.376,1.431,3.598,2.112
					c49.547,27.667,113.204,11.322,141.907-36.433C380.3,216.827,363.349,155.473,313.801,127.805z M326.196,205.876l-17.348,16.299
					c-5.375,5.047-8.732,15.011-7.463,22.14l4.096,23.015c1.27,7.128-3.127,10.206-9.77,6.839l-21.443-10.866
					c-6.643-3.365-17.51-3.365-24.152,0l-21.442,10.866c-6.643,3.367-11.04,0.289-9.77-6.839l4.095-23.015
					c1.269-7.13-2.089-17.092-7.463-22.14l-17.347-16.299c-5.375-5.048-3.695-10.03,3.731-11.071l23.973-3.357
					c7.426-1.04,16.219-7.198,19.54-13.683l10.721-20.938c3.323-6.486,8.756-6.486,12.075,0l10.725,20.938
					c3.32,6.485,12.111,12.643,19.539,13.683l23.974,3.357C329.89,195.846,331.569,200.827,326.196,205.876z"/>
			</g>
		</g>
	</g>
</g>
<g id="Layer_3" display="none">
	<g display="inline">
		<path fill="#532F91" d="M335.746,363.812c-4.343,9.701-9.127,18.512-14.039,26.475h62.282c10.599,0,19.561-3.514,20.963-15.311
			l20.22-118.688h-69.854C357.309,294.22,350.769,330.254,335.746,363.812z"/>
		<path fill="#532F91" d="M411.625,113.874c-6.166-17.137-19.396-21.041-30.27-24.247c-1.723-0.505-3.458-1.008-5.225-1.562
			c-11.597-27.111-37.438-30.789-59.183-30.789c-21.685,0-47.425,3.629-59.077,30.561c-1.751,0.554-3.49,1.074-5.17,1.595
			c-10.912,3.319-24.203,7.355-30.239,24.735c-25.943,9.977-44.111,37.901-44.097,69.209c0,3.463,0.235,6.795,0.65,10.025h141.456
			c14.372,0,27.249,10.346,29.956,24.067c1.578,7.98,2.753,15.879,3.618,23.712h73.158l0.013-0.084
			c17.517-13.132,29.083-32.333,29.083-57.72C456.3,151.726,437.887,123.672,411.625,113.874z"/>
	</g>
	<g display="inline">
		<g>
			<path fill="#532F91" d="M26.698,286.254c0,29.979,25.263,54.285,56.452,54.285c6.359,0,12.465-1.023,18.168-2.91
				c5.907-1.949,11.383,0.223,13.062,6.006c8.437,29.1,22.668,57.867,46.222,80.367c4.438,4.234,13.394,7.359,19.632,7.359h72.93
				c6.24,0,15.268-3.047,19.763-7.221c23.015-21.338,83.599-89.861,61.17-203.449c-1.162-5.897-7.382-10.644-13.625-10.644H117.253
				c-6.246,0-12.015,4.818-12.604,10.798c-0.117,1.229-0.245,2.557-0.359,3.979c-0.509,5.98-5.107,9.114-10.766,8.083
				c-3.369-0.618-6.825-0.946-10.373-0.946C51.961,231.96,26.698,256.264,26.698,286.254z M52.756,286.242
				c0-16.141,13.604-29.227,30.397-29.227c3.092,0,6.075,0.441,8.889,1.266c4.76,1.398,8.553,8.566,9.12,14.553l2.208,23.494
				c0.559,5.982-2.588,14.479-8.335,16.828c-3.655,1.494-7.668,2.32-11.886,2.32C66.361,315.476,52.752,302.396,52.756,286.242z"/>
		</g>
	</g>
</g>
<g id="Layer_4">
	<path fill="#532F91" d="M108.704,141.764c-18.162,0-32.888,14.726-32.888,32.888v186.361c0,18.166,14.726,32.888,32.888,32.888
		h21.924V141.764H108.704z"/>
	<path fill="#532F91" d="M426.613,141.764c18.156,0,32.888,14.726,32.888,32.888v186.361c0,18.166-14.731,32.888-32.888,32.888
		h-21.924V141.764H426.613z"/>
	<path fill="#532F91" d="M327.95,141.764V119.84c0-18.162-14.72-32.887-32.887-32.887h-54.811
		c-18.163,0-32.887,14.726-32.887,32.887v21.924h-54.813V393.9h228.808h1.403V141.764H327.95z M295.064,130.802v10.962h-54.811
		v-10.962c0-12.108-1.147-10.962,10.961-10.962h32.888C296.21,119.84,295.064,118.694,295.064,130.802z"/>
</g>
</svg>
